<svg height="512pt" viewBox="0 0 512 512.001" width="512pt" xmlns="http://www.w3.org/2000/svg"><path d="m244.253906 359.003906c-5.855468 5.855469-5.855468 15.351563 0 21.210938 2.929688 2.929687 6.769532 4.394531 10.609375 4.394531 3.835938 0 7.675781-1.464844 10.605469-4.394531l113.609375-113.609375c2.8125-2.8125 4.394531-6.628907 4.394531-10.605469 0-3.980469-1.582031-7.796875-4.394531-10.605469l-113.609375-113.609375c-2.929688-2.929687-6.769531-4.394531-10.605469-4.394531-3.839843 0-7.679687 1.464844-10.609375 4.394531-5.855468 5.859375-5.855468 15.355469 0 21.214844l88.007813 88.003906h-317.261719c-8.285156 0-15 6.714844-15 15 0 8.28125 6.714844 15 15 15h317.253906zm0 0"/><path d="m456.835938 0h-273.132813c-30.417969 0-55.167969 24.746094-55.167969 55.167969v155.832031h131.296875l-36.789062-36.789062c-8.5-8.5-13.179688-19.800782-13.179688-31.820313-.003906-12.019531 4.679688-23.320313 13.175781-31.820313 8.5-8.5 19.800782-13.179687 31.824219-13.179687 12.015625 0 23.316407 4.679687 31.816407 13.179687l113.613281 113.609376c8.496093 8.5 13.179687 19.800781 13.179687 31.816406 0 12.023437-4.683594 23.324218-13.179687 31.820312l-113.609375 113.609375c-8.5 8.5-19.800782 13.183594-31.820313 13.183594-12.023437 0-23.324219-4.683594-31.820312-13.179687-8.5-8.5-13.179688-19.800782-13.179688-31.820313s4.679688-23.320313 13.179688-31.820313l36.789062-36.785156h-131.296875v155.828125c0 30.421875 24.75 55.167969 55.167969 55.167969h273.132813c30.417968 0 55.164062-24.746094 55.164062-55.167969v-401.664062c0-30.421875-24.746094-55.167969-55.164062-55.167969zm0 0"/></svg>